  Duration: 00:00:07.97, start: 0.000000, bitrate: 998 kb/s
  Stream #0:0[0x1](eng): Video: h264 (High) (avc1 / 0x31637661), yuv420p(progressive), 640x360, 919 kb/s, 24.08 fps, 29.97 tbr, 2997 tbn (default)
  Stream #0:1[0x2](eng): Audio: aac (LC) (mp4a / 0x6134706D), 48000 Hz, stereo, fltp, 70 kb/s (default)
